<svg xmlns="http://www.w3.org/2000/svg" width="18" height="20" fill="none" viewBox="0 0 18 20">
  <path fill="#222" fill-rule="evenodd" d="M1.426 12.382a1.368 1.368 0 0 1-.118-1.856 1.268 1.268 0 0 1 1.74-.216l1.347.996 1 .739V4a1 1 0 0 1 2 0v5h1V2a1 1 0 0 1 2 0v7h1V3a1 1 0 0 1 2 0v6h1V6a1 1 0 0 1 2 0v8a5 5 0 0 1-5 5h-1a4.99 4.99 0 0 1-3.858-1.82c-.036-.028-.071-.06-.106-.092l-5.005-4.706Zm4.4 5.507-.08-.072L.74 13.111A2.367 2.367 0 0 1 .537 9.89a2.266 2.266 0 0 1 3.105-.384l.753.557V4a2 2 0 0 1 3-1.732V2a2 2 0 0 1 3.888-.662A2 2 0 0 1 14.395 3v1.268a2 2 0 0 1 3 1.732v8a6 6 0 0 1-6 6h-1c-1.83 0-3.47-.821-4.57-2.111Z" clip-rule="evenodd"/>
</svg>
